<?xml version="1.0" encoding="iso-8859-1"?>

<!DOCTYPE svg PUBLIC "-//W3C//DTD SVG 1.1//EN" "http://www.w3.org/Graphics/SVG/1.1/DTD/svg11.dtd">
<!-- Uploaded to: SVG Repo, www.svgrepo.com, Transformed by: SVG Repo Mixer Tools -->
<svg fill="#000000" version="1.1" id="Layer_1" xmlns="http://www.w3.org/2000/svg" xmlns:xlink="http://www.w3.org/1999/xlink" 
	 width="800px" height="800px" viewBox="0 0 75.332 52.773"
	 xml:space="preserve">
<g>
	<path d="M38.726,35.087c-0.903,0-1.774-0.241-2.464-0.68L14.9,23.084v17.521c0,1.22,0.987,2.207,2.205,2.207
		c0,0,11.3-1.871,21.221-1.871c9.922,0,20.117,1.871,20.117,1.871c1.219,0,2.205-0.987,2.205-2.207V23.991L41.074,34.45
		C40.423,34.861,39.593,35.087,38.726,35.087z"/>
	<path d="M11.459,43.401c-0.204-0.36-0.552-0.572-0.929-0.642V17.74L37.627,32.1l0.055,0.035c0.493,0.327,1.519,0.346,1.973,0.044
		l0.108-0.064l35.568-19.003L38.298,0.352l-0.14-0.093c-0.493-0.327-1.516-0.346-1.972-0.042l-0.15,0.1L35.864,0.37L0,12.158
		l7.853,4.161v26.44c-0.377,0.069-0.724,0.281-0.928,0.641l-3.857,6.823c-0.364,0.645-0.138,1.46,0.505,1.825
		c0.209,0.118,0.435,0.174,0.658,0.174c0.467,0,0.92-0.244,1.166-0.68L7.853,47.2v4.234c0,0.739,0.6,1.339,1.339,1.339
		c0.739,0,1.339-0.6,1.339-1.339v-4.236l2.458,4.345c0.247,0.436,0.699,0.68,1.166,0.68c0.223,0,0.45-0.056,0.658-0.174
		c0.644-0.365,0.87-1.182,0.506-1.825L11.459,43.401z"/>
</g>
</svg>